<svg xmlns="http://www.w3.org/2000/svg" width="32" height="32" viewBox="0 0 32 32">
  <rect x="2" y="2" width="28" height="28" rx="5" fill="#ffffff"/>
  <path
    d="M22.75 8.75c-2.5-2.15-6.35-2.6-9.55-1.65-3 .9-4.8 2.95-4.4 5.1.45 2.35 2.9 3.35 6.95 4 4.05.65 6.65 1.85 7 4.3.4 2.75-2.35 4.6-5.55 5.1-3.5.55-6.75-.3-9.1-2.4"
    transform="translate(0 2)"
    fill="none"
    stroke="#000000"
    stroke-width="3.1"
    stroke-linecap="round"
    stroke-linejoin="round"
  />
  <path
    d="M9 5.25h16M20.5 5.25l-4.75 19.5"
    transform="translate(0 -1)"
    fill="none"
    stroke="#ffffff"
    stroke-width="4.2"
    stroke-linecap="square"
    stroke-linejoin="miter"
  />
  <path
    d="M9 5.25h16M20.5 5.25l-4.75 19.5"
    transform="translate(0 -1)"
    fill="none"
    stroke="#000000"
    stroke-width="2.8"
    stroke-linecap="square"
    stroke-linejoin="miter"
  />
</svg>
